<svg xmlns="http://www.w3.org/2000/svg" width="66" height="64" viewBox="0 0 66 64"><defs><style>.a{fill:#e4c6a4;}.b{fill:rgba(253,73,198,0.35);opacity:0;}.c{fill:none;stroke:#555;stroke-linecap:round;stroke-linejoin:round;stroke-width:1.667px;}</style></defs><g transform="translate(0.401 0.31)"><rect class="a" width="66" height="64" rx="32" transform="translate(-0.401 -0.31)"/><g transform="translate(19.3 18.335)"><rect class="b" width="28" height="28" transform="translate(0.299 0.355)"/><g transform="translate(2.818 2.722)"><path class="c" d="M24.237,18.529V21.92a2.261,2.261,0,0,1-2.463,2.261A22.362,22.362,0,0,1,12.02,20.71a22.025,22.025,0,0,1-6.781-6.781,22.362,22.362,0,0,1-3.469-9.8A2.26,2.26,0,0,1,4.018,1.667H7.409A2.259,2.259,0,0,1,9.67,3.611a14.485,14.485,0,0,0,.791,3.176,2.258,2.258,0,0,1-.509,2.384L8.517,10.606A18.064,18.064,0,0,0,15.3,17.387l1.435-1.435a2.258,2.258,0,0,1,2.384-.509,14.484,14.484,0,0,0,3.176.791A2.261,2.261,0,0,1,24.237,18.529Z" transform="translate(-1.76 -1.667)"/></g></g></g></svg>