<svg xmlns="http://www.w3.org/2000/svg" width="65" height="64" viewBox="0 0 65 64"><defs><style>.a{fill:#e4c6a4;}.b{fill:rgba(253,73,198,0.35);opacity:0;}.c{fill:none;stroke:#555;stroke-linecap:round;stroke-linejoin:round;stroke-width:1.667px;}</style></defs><g transform="translate(-0.185 0.31)"><rect class="a" width="65" height="64" rx="32" transform="translate(0.185 -0.31)"/><g transform="translate(19.3 18.335)"><rect class="b" width="27" height="28" transform="translate(-0.115 0.355)"/><g transform="translate(0.746 3.84)"><path class="c" d="M25.7,2.5a12.334,12.334,0,0,1-3.549,1.729,5.063,5.063,0,0,0-8.883,3.391v1.13A12.049,12.049,0,0,1,3.094,3.633S-1.427,13.8,8.745,18.326a13.153,13.153,0,0,1-7.912,2.26c10.172,5.651,22.6,0,22.6-13a5.071,5.071,0,0,0-.091-.939A8.716,8.716,0,0,0,25.7,2.5Z" transform="translate(-0.833 -2.491)"/></g></g></g></svg>