<svg xmlns="http://www.w3.org/2000/svg" width="64" height="64" viewBox="0 0 64 64"><defs><style>.a{fill:#e4c6a4;}.b{fill:rgba(253,73,198,0.35);opacity:0;}.c{fill:none;stroke:#555;stroke-linecap:round;stroke-linejoin:round;stroke-width:1.667px;}</style></defs><g transform="translate(-0.485 0.31)"><rect class="a" width="64" height="64" rx="32" transform="translate(0.485 -0.31)"/><g transform="translate(18.335 18.335)"><rect class="b" width="27" height="28" transform="translate(0.15 0.355)"/><g transform="translate(1.61 4.981)"><path class="c" d="M25.178,6.069a3.142,3.142,0,0,0-2.192-2.261c-1.945-.475-9.72-.475-9.72-.475s-7.775,0-9.72.521a3.14,3.14,0,0,0-2.192,2.26,32.746,32.746,0,0,0-.521,5.98,32.729,32.729,0,0,0,.521,6.023,3.141,3.141,0,0,0,2.192,2.17c1.945.521,9.72.521,9.72.521s7.775,0,9.72-.521a3.14,3.14,0,0,0,2.192-2.26,32.727,32.727,0,0,0,.521-5.934A32.744,32.744,0,0,0,25.178,6.069Z" transform="translate(-0.833 -3.333)"/><path class="c" d="M8.125,14.459l6.5-3.7-6.5-3.7Z" transform="translate(1.765 -2.003)"/></g></g></g></svg>