<svg xmlns="http://www.w3.org/2000/svg" width="184" height="184" viewBox="0 0 184 184"><defs><style>.a{fill:#f4bbc8;}.b{fill:#1c2947;}</style></defs><g transform="translate(-219 -1379)"><circle class="a" cx="92" cy="92" r="92" transform="translate(219 1379)"/><g transform="translate(-827 -712.024)"><g transform="translate(1070 2112)"><g transform="translate(97.911 53.746)"><path class="b" d="M208.31,819.311a2.371,2.371,0,0,1,0-4.742,4.362,4.362,0,0,0,4.339-3.884l.16-1.442a3.152,3.152,0,0,0-3.133-3.5h-1.269a2.371,2.371,0,1,1,0-4.742h1.269a7.9,7.9,0,0,1,7.849,8.768l-.161,1.44A9.1,9.1,0,0,1,208.31,819.311Z" transform="translate(-205.939 -801)"/></g><g transform="translate(26.446 53.746)"><path class="b" d="M169.992,819.311a9.1,9.1,0,0,1-9.055-8.1l-.16-1.44a7.9,7.9,0,0,1,7.85-8.768h1.224a2.371,2.371,0,1,1,0,4.742h-1.224a3.152,3.152,0,0,0-3.136,3.5l.161,1.439a4.362,4.362,0,0,0,4.339,3.885,2.371,2.371,0,1,1,0,4.742Z" transform="translate(-160.73 -801)"/></g><g transform="translate(25.292)"><path class="b" d="M242.99,820.746a2.372,2.372,0,0,1-2.371-2.371v-8.3c0-21.138-16.846-38.335-37.553-38.335h-.386c-6.519,0-9.843,1.254-15.277,4.252a2.4,2.4,0,0,1-.751.261c-20.33,3.44-21.911,26.924-21.911,34.039v8.081a2.371,2.371,0,1,1-4.742,0v-8.081c0-16.483,6.7-35.221,25.46-38.645,5.762-3.149,9.891-4.649,17.221-4.649h.386c23.321,0,42.3,19.325,42.3,43.078v8.3A2.372,2.372,0,0,1,242.99,820.746Z" transform="translate(-160 -767)"/></g><g transform="translate(0 93.265)"><path class="b" d="M214.344,895.553H146.371A2.372,2.372,0,0,1,144,893.182v-7.934c0-21.031,9.628-33.2,33.234-41.988,8.571-3.193,14.189-5.862,14.189-13.576v-1.314a2.371,2.371,0,1,1,4.742,0v1.314c0,11.585-9.579,15.153-17.276,18.019-21.694,8.081-30.147,18.609-30.147,37.545v5.563h65.6a2.371,2.371,0,1,1,0,4.742Z" transform="translate(-144 -826)"/></g><g transform="translate(63.231 93.265)"><path class="b" d="M254.344,895.553H186.371a2.371,2.371,0,1,1,0-4.742h65.6v-5.563c0-18.936-8.452-29.464-30.147-37.545-7.7-2.866-17.276-6.434-17.276-18.019v-1.314a2.371,2.371,0,1,1,4.742,0v1.314c0,7.714,5.618,10.382,14.189,13.576,23.606,8.792,33.234,20.958,33.234,41.988v7.934A2.372,2.372,0,0,1,254.344,895.553Z" transform="translate(-184 -826)"/></g><g transform="translate(58.388 83.772)"><path class="b" d="M196.843,826.429a2.35,2.35,0,0,1-1.065-.255,12.075,12.075,0,0,0-11.421.008,2.371,2.371,0,1,1-2.1-4.254,16.759,16.759,0,0,1,15.653.011,2.372,2.372,0,0,1-1.069,4.489Z" transform="translate(-180.936 -819.994)"/></g><g transform="translate(30.035 150.173)"><path class="b" d="M165.371,871.485A2.372,2.372,0,0,1,163,869.113v-4.742a2.371,2.371,0,0,1,4.742,0v4.742A2.372,2.372,0,0,1,165.371,871.485Z" transform="translate(-163 -862)"/></g><g transform="translate(101.169 150.173)"><path class="b" d="M210.371,871.485A2.372,2.372,0,0,1,208,869.113v-4.742a2.371,2.371,0,1,1,4.742,0v4.742A2.372,2.372,0,0,1,210.371,871.485Z" transform="translate(-208 -862)"/></g><g transform="translate(34.777 27.194)"><path class="b" d="M198.369,860.72c-14.662,0-32.369-15.872-32.369-35.582V806.1c0-10.9,6.073-21.893,19.641-21.893a2.375,2.375,0,0,1,1.555.582c16.465,14.319,42.614,15.926,42.877,15.94a2.372,2.372,0,0,1,2.24,2.427l-.533,22.015C231.763,844.864,213.5,860.72,198.369,860.72Zm-13.582-71.758c-13.356.561-14.045,14.328-14.045,17.134v19.042c0,17.083,15.114,30.839,27.627,30.839,11.544,0,28.669-12.95,28.669-30.839,0-.057.481-19.872.481-19.872C220.587,804.554,199.664,801.43,184.787,788.963Z" transform="translate(-166 -784.203)"/></g><g transform="translate(44.051 105.6)"><path class="b" d="M195.538,854A25.028,25.028,0,0,1,172,836.944a2.372,2.372,0,0,1,4.486-1.541,20.033,20.033,0,0,0,38.111,0,2.371,2.371,0,1,1,4.485,1.541A25.021,25.021,0,0,1,195.538,854Z" transform="translate(-171.867 -833.803)"/></g><g transform="translate(12.312 71.169)"><path class="b" d="M170.679,825.773a2.365,2.365,0,0,1-1.676-.7c-5.511-5.507-15.4-8.38-15.495-8.406a2.371,2.371,0,0,1,1.3-4.561c.454.13,11.176,3.247,17.545,9.614a2.372,2.372,0,0,1-1.677,4.048Z" transform="translate(-151.789 -812.021)"/></g><g transform="translate(13.815 91.774)"><path class="b" d="M155.11,831.717a2.37,2.37,0,0,1-.749-4.619c.394-.131,9.7-3.182,17.732-1.576a2.37,2.37,0,1,1-.928,4.649c-6.813-1.355-15.22,1.4-15.3,1.424A2.349,2.349,0,0,1,155.11,831.717Z" transform="translate(-152.739 -825.056)"/></g><g transform="translate(102.417 71.167)"><path class="b" d="M211.16,825.774a2.372,2.372,0,0,1-1.676-4.048c6.367-6.367,17.09-9.485,17.543-9.614a2.372,2.372,0,0,1,1.3,4.561c-.1.027-10.006,2.918-15.495,8.406A2.365,2.365,0,0,1,211.16,825.774Z" transform="translate(-208.79 -812.021)"/></g><g transform="translate(100.914 91.772)"><path class="b" d="M226.728,831.718a2.369,2.369,0,0,1-.746-.12c-.082-.027-8.517-2.776-15.307-1.426a2.37,2.37,0,1,1-.93-4.649c8.032-1.611,17.341,1.445,17.735,1.576a2.371,2.371,0,0,1-.752,4.619Z" transform="translate(-207.838 -825.055)"/></g><g transform="translate(63.231 50.585)"><path class="b" d="M188.632,827.453h-2.26a2.371,2.371,0,1,1,0-4.742h2.26a1.693,1.693,0,0,0,1.691-1.691V809.275c0-7.417,3.791-10.171,7.038-10.273.04,0,.082,0,.123,0,1.838,0,6.5,1.152,8.451,1.657a2.371,2.371,0,0,1-1.187,4.591,56.322,56.322,0,0,0-7.216-1.506c-1.459.046-2.466,2.322-2.466,5.534V821.02A6.441,6.441,0,0,1,188.632,827.453Z" transform="translate(-184 -799)"/></g><g transform="translate(47.422 50.585)"><path class="b" d="M176.368,805.323a2.371,2.371,0,0,1-.462-4.7l7.9-1.581a2.371,2.371,0,0,1,.93,4.651l-7.9,1.581A2.484,2.484,0,0,1,176.368,805.323Z" transform="translate(-173.999 -799)"/></g><circle class="b" cx="2.921" cy="2.921" r="2.921" transform="translate(51.641 57.929)"/><circle class="b" cx="2.921" cy="2.921" r="2.921" transform="translate(77.808 57.929)"/></g></g></g></svg>