<svg xmlns="http://www.w3.org/2000/svg" width="184" height="184" viewBox="0 0 184 184"><defs><style>.a{fill:#aadfbb;}.b{fill:#1c2947;}</style></defs><g transform="translate(-543 -1379)"><circle class="a" cx="92" cy="92" r="92" transform="translate(543 1379)"/><g transform="translate(218 858.617)"><g transform="translate(415.544 648.952)"><path class="b" d="M396.574,630.817a2.233,2.233,0,1,1,0-4.465,19.093,19.093,0,0,0,17.941-13.043,2.232,2.232,0,0,1,4.223,1.451A23.558,23.558,0,0,1,396.574,630.817Z" transform="translate(-394.341 -611.803)"/></g><g transform="translate(350 635.583)"><path class="b" d="M480.985,671.466H352.22a2.227,2.227,0,0,1-2.22-2.233v-7.844c0-20.742,9.592-32.74,33.106-41.411,1.154-.426,2.287-.853,3.382-1.3a2.214,2.214,0,0,1,2.891,1.237,2.237,2.237,0,0,1-1.231,2.905c-1.135.462-2.312.9-3.511,1.347-21.73,8.012-30.2,18.447-30.2,37.219V667H478.765v-5.611c0-18.772-8.466-29.206-30.195-37.219-7.647-2.821-17.167-6.33-17.167-17.715v-1.224a2.22,2.22,0,1,1,4.44,0v1.224c0,7.69,5.645,10.346,14.256,13.522,23.515,8.671,33.106,20.669,33.106,41.411v7.844A2.227,2.227,0,0,1,480.985,671.466Z" transform="translate(-350 -603)"/></g><g transform="translate(379.595 690.653)"><path class="b" d="M372.233,651.907A2.233,2.233,0,0,1,370,649.675v-7.442a2.233,2.233,0,0,1,4.465,0v7.442A2.233,2.233,0,0,1,372.233,651.907Z" transform="translate(-370 -640)"/></g><g transform="translate(449.144 690.653)"><path class="b" d="M419.233,651.907A2.233,2.233,0,0,1,417,649.675v-7.442a2.233,2.233,0,0,1,4.465,0v7.442A2.233,2.233,0,0,1,419.233,651.907Z" transform="translate(-417 -640)"/></g><g transform="translate(420.203 584.095)"><path class="b" d="M399.74,628.475a2.233,2.233,0,0,1-.639-4.373c11.127-3.328,22.954-14.643,22.954-29.056V570.233a2.233,2.233,0,0,1,4.465,0v24.813c0,16.573-13.468,29.543-26.139,33.335A2.292,2.292,0,0,1,399.74,628.475Z" transform="translate(-397.507 -568)"/></g><g transform="translate(445.933 596.057)"><path class="b" d="M417.084,593.88a2.233,2.233,0,0,1,0-4.465,4.423,4.423,0,0,0,4.4-3.941l.158-1.423a3.228,3.228,0,0,0-3.209-3.586h-1.127a2.233,2.233,0,1,1,0-4.465h1.127a7.7,7.7,0,0,1,7.649,8.545l-.159,1.423A8.885,8.885,0,0,1,417.084,593.88Z" transform="translate(-414.851 -576)"/></g><g transform="translate(377.905 534)"><path class="b" d="M420.325,561.252,407,540.482l-12.3,20.706a2.238,2.238,0,0,1-3.1.755l-17.792-11.06,1.91,23.86a2.232,2.232,0,0,1-2.048,2.4,2.255,2.255,0,0,1-2.4-2.048l-2.261-28.269a2.233,2.233,0,0,1,3.4-2.073l19.615,12.193,12.983-21.857A2.24,2.24,0,0,1,406.893,534a2.321,2.321,0,0,1,1.917,1.027L422.906,557,443,544.746a2.232,2.232,0,0,1,3.388,2.082l-2.977,37.209a2.232,2.232,0,0,1-2.225,2.055H418.212a2.233,2.233,0,0,1,0-4.465h20.913l2.465-30.79" transform="translate(-369 -534)"/></g><g transform="translate(391.664 628.062)"><path class="b" d="M392.415,597.633c.286,0,.57,0,.857.015a2.233,2.233,0,0,1,2.154,2.308,2.209,2.209,0,0,1-2.309,2.154,18.821,18.821,0,0,0-11.452,3.361,2.232,2.232,0,0,1-2.518-3.685A23.121,23.121,0,0,1,392.415,597.633Z" transform="translate(-378.174 -597.633)"/></g><g transform="translate(393.232 594.671)"><path class="b" d="M381.463,605.744a2.233,2.233,0,0,1-.625-4.376l1.747-.513a1.9,1.9,0,0,0,1.289-2.355l-2.691-9.18c-2.1-7.18.482-10.831,3.6-11.855,1.555-.509,7.358-2.212,7.606-2.285a2.233,2.233,0,1,1,1.256,4.285c-.06.018-5.983,1.755-7.472,2.243-1.38.452-1.673,3.067-.708,6.357l2.691,9.18a6.369,6.369,0,0,1-4.318,7.894l-1.749.514A2.242,2.242,0,0,1,381.463,605.744Z" transform="translate(-379.232 -575.089)"/></g><g transform="translate(355.067 573.103)"><path class="b" d="M396.713,637.589c-13.266,0-29.364-9.719-34.038-25.66l-9.18-31.317a2.23,2.23,0,0,1,1.514-2.77l58.56-17.167a2.235,2.235,0,0,1,2.771,1.515l9.331,31.835c5.4,18.417-7.835,38.4-22.391,42.671A23.392,23.392,0,0,1,396.713,637.589ZM358.408,581.5l8.552,29.174c4.785,16.332,23.094,25.243,35.063,21.738,11.216-3.288,24.289-20.328,19.362-37.131l-8.7-29.692Z" transform="translate(-353.404 -560.587)"/></g><g transform="translate(371.384 601.551)"><path class="b" d="M366.688,586.673a2.233,2.233,0,0,1-.627-4.376l8.57-2.511a2.233,2.233,0,0,1,1.256,4.285l-8.57,2.511A2.256,2.256,0,0,1,366.688,586.673Z" transform="translate(-364.457 -579.696)"/></g><path class="b" d="M370.627,584.584a2.969,2.969,0,1,0,3.684,2.015A2.969,2.969,0,0,0,370.627,584.584Z" transform="translate(8.87 24.138)"/><path class="b" d="M387.774,579.558a2.969,2.969,0,1,0,3.685,2.014A2.968,2.968,0,0,0,387.774,579.558Z" transform="translate(17.095 21.734)"/><g transform="translate(402.13 645.517)"><path class="b" d="M401.992,659.276a2.232,2.232,0,0,1-2.125-1.549l-14.5-45.132a2.233,2.233,0,0,1,4.251-1.366l14.5,45.132a2.231,2.231,0,0,1-1.442,2.809A2.188,2.188,0,0,1,401.992,659.276Z" transform="translate(-385.254 -609.675)"/></g><g transform="translate(422.404 570.961)"><path class="b" d="M426.965,563.465H401.233a2.233,2.233,0,1,1,0-4.465h25.733a2.233,2.233,0,1,1,0,4.465Z" transform="translate(-399 -559)"/></g></g></g></svg>