<svg xmlns="http://www.w3.org/2000/svg" width="184" height="186.812" viewBox="0 0 184 186.812"><defs><style>.a{fill:#fe4a48;}.b{fill:#1c2947;}</style></defs><g transform="translate(-1191 -1376.188)"><circle class="a" cx="92" cy="92" r="92" transform="translate(1191 1379)"/><g transform="translate(190 -68.812)"><g transform="translate(1014 1445)"><g transform="translate(1.374 25.94)"><path class="b" d="M352.055,437.005a2.3,2.3,0,0,1-1.9-1c-9.285-13.635-12.348-28.111-8.857-41.865a2.3,2.3,0,0,1,3.874-1.033c1.3,1.339,5.73,5.106,8.884,4.776a3.385,3.385,0,0,0,2.619-1.849c3.058-4.8,1.5-9.917-.649-16.994-1.939-6.377-4.351-14.313-3.705-24.268,1.416-21.794,22.735-29.259,23.641-29.567a2.3,2.3,0,0,1,1.474,4.35c-.785.269-19.319,6.826-20.532,25.516-.592,9.122,1.59,16.3,3.517,22.634,2.319,7.625,4.32,14.212.13,20.8a7.988,7.988,0,0,1-6.035,3.952c-3.5.352-7.081-1.639-9.538-3.463-1.833,11.419,1.175,22.983,8.973,34.429a2.3,2.3,0,0,1-1.9,3.589Z" transform="translate(-339.898 -325.081)"/></g><g transform="translate(49.587 0)"><path class="b" d="M373.7,326.6a2.3,2.3,0,0,1-.58-4.516c.383-.1,8.7-2.447,8.33-11.563a2.3,2.3,0,0,1,4.588-.185,15.9,15.9,0,0,1-11.765,16.192A2.25,2.25,0,0,1,373.7,326.6Z" transform="translate(-371.401 -308.132)"/></g><g transform="translate(44.383 16.633)"><path class="b" d="M436.1,357.261a2.3,2.3,0,0,1-2.3-2.3v-5.572c0-14.226-13.6-25.8-30.309-25.8h-.3c-5,0-7.554.9-11.729,3.053a2.308,2.308,0,0,1-.693.228c-13.408,2.12-18.186,13.105-18.186,22.677v5.416a2.3,2.3,0,1,1-4.591,0v-5.416c0-10.86,5.69-24.429,21.691-27.152A25.968,25.968,0,0,1,403.2,319h.3c19.245,0,34.9,13.635,34.9,30.393v5.572A2.3,2.3,0,0,1,436.1,357.261Z" transform="translate(-368 -319)"/></g><g transform="translate(52.035 36.994)"><path class="b" d="M375.3,353.265a2.3,2.3,0,0,1-2.3-2.3c0-8.99,5.187-18.665,16.573-18.665a2.307,2.307,0,0,1,1.507.563c13.2,11.483,34.2,12.773,34.407,12.782a2.3,2.3,0,0,1-.254,4.585c-.909-.051-22.1-1.358-36.478-13.318-8.788.5-11.165,8.979-11.165,14.053A2.3,2.3,0,0,1,375.3,353.265Z" transform="translate(-373 -332.304)"/></g><g transform="translate(44.411 57.955)"><path class="b" d="M375.854,361.5a7.7,7.7,0,0,1-7.666-6.861l-.129-1.159a6.739,6.739,0,0,1,6.7-7.481,2.35,2.35,0,0,1,2.357,2.3,2.246,2.246,0,0,1-2.236,2.3h-.121a2.146,2.146,0,0,0-2.133,2.383l.129,1.16a3.119,3.119,0,0,0,3.1,2.775,2.3,2.3,0,1,1,0,4.591Z" transform="translate(-368.018 -346)"/></g><g transform="translate(104.754 57.955)"><path class="b" d="M409.743,361.5a2.3,2.3,0,1,1,0-4.591,3.119,3.119,0,0,0,3.1-2.776l.129-1.157a2.147,2.147,0,0,0-2.133-2.384h-.253a2.3,2.3,0,1,1,0-4.591h.253a6.741,6.741,0,0,1,6.7,7.481l-.129,1.159A7.706,7.706,0,0,1,409.743,361.5Z" transform="translate(-407.447 -346)"/></g><g transform="translate(19.896 90.094)"><path class="b" d="M354.3,455.766a2.3,2.3,0,0,1-2.3-2.3V421.127c0-18.884,9.034-29.8,31.187-37.669,7.971-2.833,13.2-5.194,13.2-11.941V369.3a2.3,2.3,0,1,1,4.591,0v2.222c0,10.494-9.011,13.693-16.25,16.266-20.245,7.195-28.133,16.544-28.133,33.344V453.47A2.3,2.3,0,0,1,354.3,455.766Z" transform="translate(-352 -367)"/></g><g transform="translate(90.296 90.094)"><path class="b" d="M423.565,391.411a2.3,2.3,0,0,1-.984-.222,87.391,87.391,0,0,0-8.33-3.405c-7.239-2.573-16.25-5.771-16.25-16.266V369.3a2.3,2.3,0,1,1,4.591,0v2.222c0,6.746,5.225,9.108,13.2,11.941a91.536,91.536,0,0,1,8.766,3.584,2.3,2.3,0,0,1-.989,4.368Z" transform="translate(-398 -367)"/></g><g transform="translate(73.461 55.131)"><path class="b" d="M391.608,366.874H389.3a2.3,2.3,0,0,1,0-4.591h2.313a1.514,1.514,0,0,0,1.514-1.514v-7.675c0-6.457,3.235-8.851,6.007-8.939a2.3,2.3,0,0,1,.147,4.588c-.758.024-1.563,1.558-1.563,4.351v7.675A6.113,6.113,0,0,1,391.608,366.874Z" transform="translate(-387 -344.155)"/></g><g transform="translate(52.035 50.303)"><path class="b" d="M399.933,389.244c-12.455,0-26.933-12.918-26.933-29.571V346.357a2.3,2.3,0,1,1,4.591,0v13.316c0,13.837,12.221,24.98,22.341,24.98,9.492,0,23.572-10.3,23.572-24.535V343.3a2.3,2.3,0,0,1,4.591,0v16.823C428.1,376.252,412.689,389.244,399.933,389.244Z" transform="translate(-373 -341)"/></g><g transform="translate(60.452 101.571)"><path class="b" d="M398.264,387.128a24.969,24.969,0,0,1-19.238-8.869,2.3,2.3,0,0,1,3.538-2.926,20.394,20.394,0,0,0,16.827,7.172c5.627-.3,10.424-2.842,13.159-6.976a2.3,2.3,0,1,1,3.829,2.534c-3.546,5.36-9.649,8.65-16.743,9.028C399.18,387.115,398.72,387.128,398.264,387.128Z" transform="translate(-378.5 -374.499)"/></g><g transform="translate(71.213 81.51)"><path class="b" d="M399.974,367.68a2.28,2.28,0,0,1-1.114-.289,9.546,9.546,0,0,0-9.917,0,2.3,2.3,0,1,1-2.23-4.013,14,14,0,0,1,14.377,0,2.3,2.3,0,0,1-1.116,4.3Z" transform="translate(-385.531 -361.391)"/></g><g transform="translate(0 181.921)"><path class="b" d="M494.34,431.591H341.3a2.3,2.3,0,0,1,0-4.591H494.34a2.3,2.3,0,0,1,0,4.591Z" transform="translate(-339 -427)"/></g><g transform="translate(117.904 8.652)"><path class="b" d="M445.493,419.868a2.3,2.3,0,0,1-1.755-3.774c.057-.069,5.753-6.911,6.135-12.735a49.743,49.743,0,0,0-.647-11.25c-3.506,4.19-9.242,9.85-14.132,9.734a6.315,6.315,0,0,1-5.334-3.235c-2.325-3.7-1.293-9.864.138-18.4,1.661-9.919,3.727-22.263.892-34.212-4.469-18.846-13.952-28.168-14.048-28.26a2.3,2.3,0,0,1,3.177-3.315c.429.41,10.534,10.256,15.34,30.516,3.049,12.85.9,25.7-.833,36.031-1.119,6.674-2.175,12.978-.779,15.2.589.938,1.122,1.076,1.566,1.088,3.486,0,9.864-6.856,13.326-11.764a2.3,2.3,0,0,1,4.077.667,55.376,55.376,0,0,1,1.84,17.5c-.482,7.34-6.933,15.069-7.207,15.393A2.288,2.288,0,0,1,445.493,419.868Z" transform="translate(-416.039 -313.785)"/></g><g transform="translate(43.279 142.813)"><path class="b" d="M369.575,437.341a2.3,2.3,0,0,1-2.3-2.3v-31.3a2.3,2.3,0,0,1,4.591,0v31.3A2.3,2.3,0,0,1,369.575,437.341Z" transform="translate(-367.279 -401.447)"/></g><g transform="translate(90.296 90.094)"><path class="b" d="M444.679,455.766a2.3,2.3,0,0,0,2.3-2.3V421.127c0-18.884-9.034-29.8-31.187-37.669-7.971-2.833-13.2-5.194-13.2-11.941V369.3a2.3,2.3,0,1,0-4.591,0v2.222c0,10.494,9.011,13.693,16.25,16.266,20.245,7.195,28.133,16.544,28.133,33.344V453.47A2.3,2.3,0,0,0,444.679,455.766Z" transform="translate(-398 -367)"/></g><g transform="translate(111.296 142.813)"><path class="b" d="M414.017,437.341a2.3,2.3,0,0,0,2.3-2.3v-31.3a2.3,2.3,0,0,0-4.591,0v31.3A2.3,2.3,0,0,0,414.017,437.341Z" transform="translate(-411.721 -401.447)"/></g><g transform="translate(87.083 58.365)"><path class="b" d="M404.752,356.274a2.284,2.284,0,0,1-1.46-.526l-6.558-5.413a2.3,2.3,0,0,1,2.925-3.54l6.556,5.413a2.3,2.3,0,0,1-1.463,4.066Z" transform="translate(-395.9 -346.268)"/></g><g transform="translate(87.083 58.365)"><path class="b" d="M398.2,356.274a2.3,2.3,0,0,1-1.463-4.066l6.558-5.413a2.3,2.3,0,0,1,2.923,3.54l-6.556,5.413A2.292,2.292,0,0,1,398.2,356.274Z" transform="translate(-395.9 -346.268)"/></g><g transform="translate(62.596 58.365)"><path class="b" d="M388.752,356.274a2.285,2.285,0,0,1-1.46-.526l-6.558-5.413a2.3,2.3,0,0,1,2.925-3.54l6.556,5.413a2.3,2.3,0,0,1-1.463,4.066Z" transform="translate(-379.9 -346.268)"/></g><g transform="translate(62.596 58.365)"><path class="b" d="M382.2,356.274a2.3,2.3,0,0,1-1.463-4.066l6.558-5.413a2.3,2.3,0,0,1,2.923,3.54l-6.556,5.413A2.292,2.292,0,0,1,382.2,356.274Z" transform="translate(-379.9 -346.268)"/></g></g></g></g></svg>