<svg xmlns="http://www.w3.org/2000/svg" width="184" height="185.356" viewBox="0 0 184 185.356"><defs><style>.a{fill:#8c96bd;}.b{fill:#1c2947;}</style></defs><g transform="translate(-867 -1377.644)"><circle class="a" cx="92" cy="92" r="92" transform="translate(867 1379)"/><g transform="translate(115 626.291)"><g transform="translate(752 931.804)"><path class="b" d="M933.738,875.525H754.262a2.262,2.262,0,0,1,0-4.525H933.738a2.262,2.262,0,1,1,0,4.525Z" transform="translate(-752 -871)"/></g><g transform="translate(834.95 855.557)"><path class="b" d="M819.82,825.807a2.248,2.248,0,0,1-.7-.11,14.788,14.788,0,0,0-9.147,0,2.263,2.263,0,0,1-1.424-4.3,19.317,19.317,0,0,1,11.968,0,2.262,2.262,0,0,1-.7,4.414Z" transform="translate(-806.999 -820.444)"/></g><g transform="translate(839.475 830.748)"><path class="b" d="M813.6,826.625h-1.341a2.262,2.262,0,0,1,0-4.524H813.6a.923.923,0,0,0,.922-.922V812.6c0-6.147,3.292-7.936,5.253-8.455a6.5,6.5,0,0,1,3.571.288l.241.071c.06.018.119.038.178.06l2.873,1.1a2.261,2.261,0,0,1-1.611,4.226l-2.965-1.115a4.022,4.022,0,0,0-1.143-.25c-.5.134-1.873.5-1.873,4.078v8.58A5.452,5.452,0,0,1,813.6,826.625Z" transform="translate(-810 -803.996)"/></g><g transform="translate(827.409 830.753)"><path class="b" d="M804.263,810.033a2.262,2.262,0,0,1-.716-4.409l4.525-1.508a2.263,2.263,0,0,1,1.433,4.292l-4.525,1.508A2.244,2.244,0,0,1,804.263,810.033Z" transform="translate(-802 -803.999)"/></g><circle class="b" cx="2.262" cy="2.262" r="2.262" transform="translate(831.934 838.296)"/><circle class="b" cx="2.262" cy="2.262" r="2.262" transform="translate(851.541 838.296)"/><g transform="translate(819.869 813.476)"><path class="b" d="M831.756,805.9c-.092,0-.184-.006-.277-.015-6.9-.845-14.278-2.225-22.13-8.755-2.347.386-5.352,2.489-8.4,5.9a2.262,2.262,0,0,1-3.375-3.013c3.044-3.412,7.69-7.478,12.53-7.478a2.269,2.269,0,0,1,1.484.555c7.159,6.226,14.023,7.514,20.439,8.3a2.262,2.262,0,0,1-.271,4.508Z" transform="translate(-797 -792.543)"/></g><g transform="translate(819.119 851.022)"><path class="b" d="M820,838.8c-9.493,0-19.536-7.876-23.359-18.32a2.261,2.261,0,1,1,4.247-1.555c3.519,9.609,12.48,15.35,19.112,15.35,6.785,0,14.838-5.582,18.727-12.981a2.263,2.263,0,1,1,4.006,2.107C838.042,832.321,828.481,838.8,820,838.8Z" transform="translate(-796.503 -817.438)"/></g><g transform="translate(803.022 819.964)"><path class="b" d="M800.449,842.792a2.229,2.229,0,0,1-.576-.074,2.261,2.261,0,0,1-1.612-2.763,41.471,41.471,0,0,1,2.645-6.454c.24-.5.458-.959.635-1.347.413-.911.092-4.864-1.457-8.1-1.742-3.641,1.571-13.726,3.383-17.264a14.045,14.045,0,0,0-.834-4.879,48.928,48.928,0,0,0-6.61,7.134c-.826,1.228-5.424,10.259-5.653,11.913-.164,2.384.737,7.242,1.335,10.456.376,2.022.646,3.484.7,4.36a2.259,2.259,0,0,1-2.128,2.388,2.225,2.225,0,0,1-2.387-2.128c-.033-.59-.323-2.148-.629-3.795-.713-3.847-1.6-8.635-1.4-11.625.2-2.912,6.128-13.78,6.65-14.423,7.628-9.39,9.806-9.708,11.539-9.2a4.554,4.554,0,0,1,2.618,2.852c.837,1.985,2,6.794.878,8.915-2.1,3.983-3.921,11.833-3.368,13.37,1.694,3.538,2.75,9.109,1.483,11.9-.186.41-.416.891-.668,1.422a39.172,39.172,0,0,0-2.356,5.657A2.26,2.26,0,0,1,800.449,842.792Z" transform="translate(-785.83 -796.845)"/></g><g transform="translate(815.332 863.935)"><path class="b" d="M796.254,842.924a2.262,2.262,0,0,1-.78-4.386c6.4-2.353,10.6-4.309,10.6-9.845v-.43a2.262,2.262,0,1,1,4.525,0v.43c0,9.108-7.837,11.989-13.559,14.093A2.294,2.294,0,0,1,796.254,842.924Z" transform="translate(-793.992 -826)"/></g><g transform="translate(853.049 863.935)"><path class="b" d="M833.34,842.924a2.294,2.294,0,0,1-.781-.139C826.836,840.681,819,837.8,819,828.692v-.43a2.262,2.262,0,1,1,4.525,0v.43c0,5.537,4.194,7.493,10.6,9.845a2.262,2.262,0,0,1-.78,4.386Z" transform="translate(-819 -826)"/></g><g transform="translate(823.87 872.877)"><path class="b" d="M818.038,848.162a19.789,19.789,0,0,1-18.2-11.99,2.262,2.262,0,1,1,4.156-1.784,15.283,15.283,0,0,0,28.454-.946,2.263,2.263,0,0,1,4.27,1.5A19.831,19.831,0,0,1,818.038,848.162Z" transform="translate(-799.653 -831.929)"/></g><g transform="translate(803.279 910.689)"><path class="b" d="M788.262,881.131A2.263,2.263,0,0,1,786,878.869V859.262a2.262,2.262,0,0,1,4.525,0v19.607A2.263,2.263,0,0,1,788.262,881.131Z" transform="translate(-786 -857)"/></g><g transform="translate(770.551 857.895)"><path class="b" d="M775.243,900.509a17.991,17.991,0,0,1-1.817-.092,8.811,8.811,0,0,1-6.968-4.872c-3.565-6.469-2.62-19.011,2.152-28.555,3.636-7.272,11.121-17.991,17.726-27.446,4.5-6.44,8.746-12.523,11.007-16.423a2.263,2.263,0,0,1,2.627-1.024l13.139,4.077a2.26,2.26,0,0,1,1.555,2.567c-2.3,12.572-7.263,35.8-14.694,50.083l-.173.371C793.379,893.019,784.716,900.509,775.243,900.509Zm25.084-73.565c-2.464,4-6.276,9.455-10.281,15.192-6.515,9.328-13.9,19.9-17.388,26.879-4.037,8.072-5.061,19.222-2.238,24.347a4.381,4.381,0,0,0,3.455,2.555c10.969,1.072,18.368-11.2,21.816-18.628.115-.246.2-.425.252-.529,6.8-13.079,11.515-34.208,13.9-46.861Z" transform="translate(-764.3 -821.995)"/></g><g transform="translate(859.521 819.964)"><path class="b" d="M830.847,842.792a2.263,2.263,0,0,1-2.187-1.686,38.874,38.874,0,0,0-2.354-5.654c-.253-.531-.483-1.015-.668-1.424-1.268-2.792-.213-8.363,1.495-11.925.541-1.511-1.282-9.361-3.38-13.344-1.117-2.119.041-6.929.878-8.914a4.554,4.554,0,0,1,2.617-2.854c1.728-.505,3.911-.187,11.539,9.2.713.878,6.458,11.631,6.651,14.424.207,2.991-.683,7.778-1.4,11.625-.3,1.647-.6,3.2-.629,3.795a2.218,2.218,0,0,1-2.388,2.128,2.26,2.26,0,0,1-2.128-2.388c.05-.876.321-2.338.7-4.36.6-3.214,1.5-8.072,1.33-10.487-.226-1.629-4.823-10.655-5.713-11.967a48.308,48.308,0,0,0-6.544-7.051,13.993,13.993,0,0,0-.837,4.88c1.811,3.538,5.126,13.624,3.383,17.264-1.547,3.235-1.87,7.188-1.457,8.1.176.386.4.845.636,1.348a41.507,41.507,0,0,1,2.645,6.451,2.266,2.266,0,0,1-1.612,2.765A2.315,2.315,0,0,1,830.847,842.792Z" transform="translate(-823.291 -796.845)"/></g><g transform="translate(863.765 857.895)"><path class="b" d="M865.567,900.509c-9.472,0-18.133-7.487-24.554-21.309l-.187-.4c-7.42-14.269-12.387-37.489-14.684-50.06a2.26,2.26,0,0,1,1.555-2.567l13.139-4.077a2.262,2.262,0,0,1,2.627,1.024c2.261,3.9,6.508,9.978,11,16.414,6.607,9.459,14.094,20.181,17.732,27.455,4.772,9.544,5.717,22.086,2.152,28.555a8.808,8.808,0,0,1-6.966,4.872A17.985,17.985,0,0,1,865.567,900.509ZM830.96,829.9c2.389,12.652,7.1,33.777,13.892,46.837.063.127.149.309.265.558,3.449,7.425,10.883,19.7,21.814,18.623a4.376,4.376,0,0,0,3.455-2.555c2.823-5.125,1.8-16.275-2.238-24.347-3.488-6.979-10.876-17.557-17.392-26.888-4-5.734-7.812-11.186-10.275-15.183Z" transform="translate(-826.105 -821.995)"/></g><g transform="translate(877.18 910.689)"><path class="b" d="M837.262,881.131A2.263,2.263,0,0,1,835,878.869V859.262a2.262,2.262,0,0,1,4.525,0v19.607A2.263,2.263,0,0,1,837.262,881.131Z" transform="translate(-835 -857)"/></g><g transform="translate(816.852 751.353)"><path class="b" d="M882.307,793.05H812.344a2.262,2.262,0,0,1,0-4.525h67.867a11.88,11.88,0,0,0-14.219-11.515,2.258,2.258,0,0,1-2.65-1.793,23.851,23.851,0,0,0-46.98.8,2.264,2.264,0,0,1-3.125,1.728,11.824,11.824,0,0,0-4.687-.961c-3.932,0-8.432,2.712-9.085,5.476a2.263,2.263,0,0,1-4.4-1.044c1.249-5.279,8.111-8.957,13.489-8.957a16.383,16.383,0,0,1,3.873.46,28.377,28.377,0,0,1,54.882-.43,16.356,16.356,0,0,1,17.24,18.828A2.263,2.263,0,0,1,882.307,793.05Z" transform="translate(-795 -751.353)"/></g><g transform="translate(781.188 780.95)"><path class="b" d="M819.853,793.65c-46.918,0-46.918,0-47.493-.383a2.261,2.261,0,0,1-1.006-1.858,20.2,20.2,0,0,1,35.767-13.1,13.011,13.011,0,0,1,14.995,13.123A2.265,2.265,0,0,1,819.853,793.65Zm-43.845-4.526c7.91,0,33.245,0,41.338,0A8.491,8.491,0,0,0,806.808,783a2.251,2.251,0,0,1-2.454-.87,15.674,15.674,0,0,0-23.947-1.971A15.541,15.541,0,0,0,776.009,789.124Z" transform="translate(-771.353 -770.977)"/></g><g transform="translate(869.639 799.083)"><path class="b" d="M832.262,792.049A2.263,2.263,0,0,1,830,789.787v-4.525a2.262,2.262,0,0,1,4.525,0v4.525A2.263,2.263,0,0,1,832.262,792.049Z" transform="translate(-830 -783)"/></g><g transform="translate(899.803 799.083)"><path class="b" d="M852.262,792.049A2.263,2.263,0,0,1,850,789.787v-4.525a2.262,2.262,0,1,1,4.524,0v4.525A2.263,2.263,0,0,1,852.262,792.049Z" transform="translate(-850 -783)"/></g><g transform="translate(884.721 824.722)"><path class="b" d="M842.262,809.049A2.263,2.263,0,0,1,840,806.787v-4.525a2.262,2.262,0,0,1,4.525,0v4.525A2.263,2.263,0,0,1,842.262,809.049Z" transform="translate(-840 -800)"/></g><g transform="translate(884.721 797.575)"><path class="b" d="M842.262,801.607A2.263,2.263,0,0,1,840,799.344V784.262a2.262,2.262,0,1,1,4.525,0v15.082A2.263,2.263,0,0,1,842.262,801.607Z" transform="translate(-840 -782)"/></g><g transform="translate(839.475 799.083)"><path class="b" d="M812.262,792.049A2.263,2.263,0,0,1,810,789.787v-4.525a2.262,2.262,0,0,1,4.525,0v4.525A2.263,2.263,0,0,1,812.262,792.049Z" transform="translate(-810 -783)"/></g><g transform="translate(854.557 797.575)"><path class="b" d="M822.262,801.607A2.263,2.263,0,0,1,820,799.344V784.262a2.262,2.262,0,1,1,4.525,0v15.082A2.263,2.263,0,0,1,822.262,801.607Z" transform="translate(-820 -782)"/></g></g></g></svg>