<svg xmlns="http://www.w3.org/2000/svg" width="184" height="184" viewBox="0 0 184 184"><defs><style>.a{fill:#999997;}.b{fill:#1c2947;}</style></defs><g transform="translate(-1515 -1379)"><circle class="a" cx="92" cy="92" r="92" transform="translate(1515 1379)"/><g transform="translate(538 -250)"><g transform="translate(982 1640)"><g transform="translate(105.778 87.977)"><path class="b" d="M623.191,853.58h-1.857a2.333,2.333,0,0,1,0-4.667h1.857a3.59,3.59,0,0,0,3.587-3.587V829.377c0-9.209,4.175-12.532,7.677-13.7a2.333,2.333,0,0,1,1.476,4.426c-1.111.372-4.486,1.495-4.486,9.273v15.949A8.263,8.263,0,0,1,623.191,853.58Z" transform="translate(-619 -815.557)"/></g><g transform="translate(85.124 94.105)"><path class="b" d="M608.057,833.495a2.333,2.333,0,0,1-1.651-3.982l9.333-9.333a2.333,2.333,0,0,1,3.3,3.3l-9.333,9.333A2.325,2.325,0,0,1,608.057,833.495Z" transform="translate(-605.723 -819.496)"/></g><g transform="translate(85.124 94.105)"><path class="b" d="M617.39,833.495a2.326,2.326,0,0,1-1.651-.683l-9.333-9.333a2.333,2.333,0,0,1,3.3-3.3l9.333,9.333a2.333,2.333,0,0,1-1.649,3.982Z" transform="translate(-605.723 -819.496)"/></g><g transform="translate(122.458 94.105)"><path class="b" d="M632.057,833.495a2.333,2.333,0,0,1-1.651-3.982l9.333-9.333a2.333,2.333,0,0,1,3.3,3.3l-9.333,9.333A2.325,2.325,0,0,1,632.057,833.495Z" transform="translate(-629.723 -819.496)"/></g><g transform="translate(122.458 94.105)"><path class="b" d="M641.39,833.495a2.326,2.326,0,0,1-1.651-.683l-9.333-9.333a2.333,2.333,0,0,1,3.3-3.3l9.333,9.333a2.333,2.333,0,0,1-1.649,3.982Z" transform="translate(-629.723 -819.496)"/></g><g transform="translate(0 17.111)"><path class="b" d="M590.667,913.112H559.416A8.425,8.425,0,0,1,551,904.7V778.416A8.425,8.425,0,0,1,559.416,770H629.7a8.425,8.425,0,0,1,8.416,8.416v4.807a2.333,2.333,0,0,1-4.667,0v-4.807a3.753,3.753,0,0,0-3.749-3.749H559.416a3.753,3.753,0,0,0-3.749,3.749V904.7a3.753,3.753,0,0,0,3.749,3.749h31.251a2.333,2.333,0,0,1,0,4.667Z" transform="translate(-551 -770)"/></g><g transform="translate(23.333 0)"><path class="b" d="M604.111,779.222a2.334,2.334,0,0,1-2.333-2.333V763.667H570.667v13.222a2.333,2.333,0,1,1-4.667,0V761.333A2.334,2.334,0,0,1,568.333,759h35.778a2.334,2.334,0,0,1,2.333,2.333v15.556A2.334,2.334,0,0,1,604.111,779.222Z" transform="translate(-566 -759)"/></g><g transform="translate(12.445 40.445)"><path class="b" d="M595.556,809.889H561.333A2.334,2.334,0,0,1,559,807.556V787.333A2.334,2.334,0,0,1,561.333,785H608a2.333,2.333,0,0,1,0,4.667H563.667v15.556h31.889a2.333,2.333,0,1,1,0,4.667Z" transform="translate(-559 -785)"/></g><g transform="translate(12.445 76.223)"><path class="b" d="M594,832.889H561.333A2.334,2.334,0,0,1,559,830.556V810.333A2.334,2.334,0,0,1,561.333,808h31.111a2.333,2.333,0,0,1,0,4.667H563.667v15.556H594a2.333,2.333,0,0,1,0,4.667Z" transform="translate(-559 -808)"/></g><g transform="translate(12.445 112.001)"><path class="b" d="M589.334,855.889h-28A2.334,2.334,0,0,1,559,853.556V833.333A2.334,2.334,0,0,1,561.333,831H594a2.333,2.333,0,1,1,0,4.667H563.667v15.556h25.667a2.333,2.333,0,0,1,0,4.667Z" transform="translate(-559 -831)"/></g><g transform="translate(42.032 28.778)"><path class="b" d="M608.314,909.144c-20.691,0-29.455-11.612-29.844-12.143a2.335,2.335,0,0,1,.09-2.873c13.344-16.007,12.222-27,10.52-43.63a210.088,210.088,0,0,1-1.408-22.419c0-16.5,9.935-34.793,32.115-38.843,6.1-5.743,18.3-11.737,28.137-11.737,30.167,0,54.459,26.614,54.459,48.649a304.368,304.368,0,0,1-1.7,30.612c-1.7,17.858-2.469,26.006,8.741,37.212a2.33,2.33,0,0,1,.238,3.021c-.415.572-10.446,13.947-34.642,11.944a2.334,2.334,0,0,1-2.133-2.518,2.368,2.368,0,0,1,2.519-2.133c16.974,1.419,26.034-5.511,29.185-8.605-11.149-12.023-10.208-21.944-8.552-39.361a300.878,300.878,0,0,0,1.68-30.172c0-19.921-22.21-43.982-49.792-43.982-8.532,0-20.224,5.742-25.379,10.9a2.325,2.325,0,0,1-1.268.652c-22.844,3.807-28.938,23.393-28.938,34.366a206.457,206.457,0,0,0,1.383,21.944c1.7,16.659,2.949,28.832-10.312,45.538,3.032,3.051,12.06,10.169,29.385,8.725a2.334,2.334,0,1,1,.386,4.651Q610.648,909.148,608.314,909.144Z" transform="translate(-578.02 -777.5)"/></g><g transform="translate(68.445 57.856)"><path class="b" d="M636.106,894.264c-18.119,0-41.106-22.4-41.106-47.571V823.115a2.341,2.341,0,0,1,.88-1.828c.143-.112,14.235-11.384,22.361-24.026a2.334,2.334,0,0,1,3.377-.594c19.113,14.562,53.759,24.1,54.106,24.2a2.331,2.331,0,0,1,1.72,2.251v23.333C677.445,871.752,654.328,894.264,636.106,894.264Zm-36.439-70.039v22.469c0,22.1,20.527,42.9,36.439,42.9,16.013,0,36.672-20.924,36.672-43.148V824.881c-7.14-2.072-34.3-10.466-51.992-23.033C613.351,812.545,602.789,821.641,599.667,824.225Z" transform="translate(-595 -796.193)"/></g><g transform="translate(99.49 132.363)"><path class="b" d="M617.292,850.141a2.333,2.333,0,0,1-.734-4.548,28.871,28.871,0,0,1,18.373,0,2.333,2.333,0,1,1-1.44,4.438,24.289,24.289,0,0,0-15.464,0A2.332,2.332,0,0,1,617.292,850.141Z" transform="translate(-614.957 -844.09)"/></g></g></g></g></svg>